<?xml version="1.0" encoding="UTF-8" standalone="no"?>
<svg
   xmlns:dc="http://purl.org/dc/elements/1.1/"
   xmlns:cc="http://creativecommons.org/ns#"
   xmlns:rdf="http://www.w3.org/1999/02/22-rdf-syntax-ns#"
   xmlns:svg="http://www.w3.org/2000/svg"
   xmlns="http://www.w3.org/2000/svg"
   xmlns:sodipodi="http://sodipodi.sourceforge.net/DTD/sodipodi-0.dtd"
   xmlns:inkscape="http://www.inkscape.org/namespaces/inkscape"
   version="1.0"
   width="208pt"
   height="208pt"
   viewBox="0 0 208 208"
   preserveAspectRatio="xMidYMid meet"
   id="svg853"
   sodipodi:docname="BTDEX_logo_grey_new.svg"
   inkscape:version="0.92.5 (2060ec1f9f, 2020-04-08)"
   inkscape:export-xdpi="9"
   inkscape:export-ydpi="9">
  <defs
     id="defs857" />
  <sodipodi:namedview
     pagecolor="#ffffff"
     bordercolor="#666666"
     borderopacity="1"
     objecttolerance="10"
     gridtolerance="10"
     guidetolerance="10"
     inkscape:pageopacity="0"
     inkscape:pageshadow="2"
     inkscape:window-width="1848"
     inkscape:window-height="1009"
     id="namedview855"
     showgrid="false"
     inkscape:zoom="1.5288461"
     inkscape:cx="12.569481"
     inkscape:cy="48.2896"
     inkscape:window-x="72"
     inkscape:window-y="34"
     inkscape:window-maximized="1"
     inkscape:current-layer="g851" />
  <metadata
     id="metadata837">
Created by potrace 1.16, written by Peter Selinger 2001-2019
<rdf:RDF>
  <cc:Work
     rdf:about="">
    <dc:format>image/svg+xml</dc:format>
    <dc:type
       rdf:resource="http://purl.org/dc/dcmitype/StillImage" />
    <dc:title></dc:title>
  </cc:Work>
</rdf:RDF>
</metadata>
  <g
     transform="matrix(0.1,0,0,-0.1,0,208)"
     id="g851"
     style="fill:#000000;stroke:none">
    <path
       d="m 452,1364 -87,-85.3208 33.50848,-33.2331 35.2651,-35.5404 L 479,1253 c 238,240 440,437 447,437 8,0 123,-111 257,-247 l 244,-246 34,35 35,35 -284,287 -284,288 z"
       id="path839"
       inkscape:connector-curvature="0"
       sodipodi:nodetypes="cccccsccccccc"
       style="fill:#bbbbbb;fill-opacity:1" />
    <path
       d="M 510,1170 101,761 130,730 c 16,-16 34,-30 40,-30 6,0 176,167 379,370 202,204 372,370 376,370 4,0 89,-81 188,-180 98,-99 183,-180 189,-180 5,0 22,14 38,30 l 29,31 -219,219 c -121,121 -222,220 -225,220 -3,0 -189,-184 -415,-410 z"
       id="path841"
       style="fill:#bbbbbb;fill-opacity:1"
       inkscape:connector-curvature="0" />
    <path
       d="M 1495,1150 C 1327,980 1186,840 1180,840 c -5,0 -65,55 -132,122 l -123,122 -30,-29 c -16,-16 -30,-34 -30,-39 0,-6 70,-81 155,-166 l 155,-155 350,350 350,349 -32,33 c -18,18 -35,33 -38,33 -3,0 -143,-139 -310,-310 z"
       id="path843"
       style="fill:#bbbbbb;fill-opacity:1"
       inkscape:connector-curvature="0" />
    <path
       d="M 577,987 C 389,799 235,640 235,634 c 0,-5 14,-23 30,-39 l 31,-29 307,306 c 169,169 311,311 315,315 4,4 64,-49 132,-117 l 125,-124 30,29 c 16,16 30,34 30,39 0,11 -300,316 -310,316 -3,0 -159,-154 -348,-343 z"
       id="path845"
       style="fill:#bbbbbb;fill-opacity:1"
       inkscape:connector-curvature="0" />
    <path
       d="M 1555,959 C 1355,756 1186,590 1179,590 c -6,0 -91,81 -190,180 -98,99 -184,180 -190,180 -5,0 -23,-14 -39,-30 l -29,-31 223,-223 223,-223 409,410 c 225,225 409,413 409,417 0,10 -55,60 -66,59 -5,-1 -173,-167 -374,-370 z"
       id="path847"
       style="fill:#bbbbbb;fill-opacity:1"
       inkscape:connector-curvature="0" />
    <path
       d="M 1625,775 C 1391.5051,530.61889 1183,340 1175,340 c -8,0 -124,111 -258,247 L 675,834 645,805 c -17,-16 -30,-34 -30,-41 0,-7 126,-140 280,-296 l 280,-283 477,478 203.283,199.83019 -31.3207,36.22641 -41.1321,41.13208 z"
       id="path849"
       inkscape:connector-curvature="0"
       sodipodi:nodetypes="sscccsccccccs"
       style="fill:#bbbbbb;fill-opacity:1" />
  </g>
</svg>
